<?xml version="1.0" encoding="UTF-8" standalone="no"?>
<!DOCTYPE svg PUBLIC "-//W3C//DTD SVG 1.1//EN"
 "http://www.w3.org/Graphics/SVG/1.1/DTD/svg11.dtd">
<!-- Generated by graphviz version 2.43.0 (0)
 -->
<!-- Title: CliArg Pages: 1 -->
<svg width="105pt" height="159pt"
 viewBox="0.00 0.00 104.50 159.00" xmlns="http://www.w3.org/2000/svg" xmlns:xlink="http://www.w3.org/1999/xlink">
<g id="graph0" class="graph" transform="scale(1 1) rotate(0) translate(4 155)">
<title>CliArg</title>
<!-- Node1 -->
<g id="Node000001" class="node">
<title>Node1</title>
<g id="a_Node000001"><a xlink:title="Command&#45;line arguments.">
<polygon fill="#999999" stroke="#666666" points="70.5,-19 24.5,-19 24.5,0 70.5,0 70.5,-19"/>
<text text-anchor="middle" x="47.5" y="-7" font-family="Helvetica,sans-Serif" font-size="10.00">CliArg</text>
</a>
</g>
</g>
<!-- Node2 -->
<g id="Node000002" class="node">
<title>Node2</title>
<g id="a_Node000002"><a xlink:href="structStrSliceOptional.html" target="_top" xlink:title=" ">
<polygon fill="white" stroke="#bfbfbf" points="95,-85 0,-85 0,-66 95,-66 95,-85"/>
<text text-anchor="middle" x="47.5" y="-73" font-family="Helvetica,sans-Serif" font-size="10.00">StrSliceOptional</text>
</a>
</g>
</g>
<!-- Node2&#45;&gt;Node1 -->
<g id="edge1_Node000001_Node000002" class="edge">
<title>Node2&#45;&gt;Node1</title>
<g id="a_edge1_Node000001_Node000002"><a xlink:title=" ">
<path fill="none" stroke="#9a32cd" stroke-dasharray="5,2" d="M47.5,-55.58C47.5,-43.63 47.5,-28.72 47.5,-19.41"/>
<polygon fill="#9a32cd" stroke="#9a32cd" points="44,-55.87 47.5,-65.87 51,-55.87 44,-55.87"/>
</a>
</g>
<text text-anchor="middle" x="72" y="-40" font-family="Helvetica,sans-Serif" font-size="10.00" fill="grey"> input_file</text>
</g>
<!-- Node3 -->
<g id="Node000003" class="node">
<title>Node3</title>
<g id="a_Node000003"><a xlink:href="structStrSlice.html" target="_top" xlink:title="Copium {std::string_view}.">
<polygon fill="white" stroke="#666666" points="74,-151 21,-151 21,-132 74,-132 74,-151"/>
<text text-anchor="middle" x="47.5" y="-139" font-family="Helvetica,sans-Serif" font-size="10.00">StrSlice</text>
</a>
</g>
</g>
<!-- Node3&#45;&gt;Node2 -->
<g id="edge2_Node000002_Node000003" class="edge">
<title>Node3&#45;&gt;Node2</title>
<g id="a_edge2_Node000002_Node000003"><a xlink:title=" ">
<path fill="none" stroke="#9a32cd" stroke-dasharray="5,2" d="M47.5,-121.58C47.5,-109.63 47.5,-94.72 47.5,-85.41"/>
<polygon fill="#9a32cd" stroke="#9a32cd" points="44,-121.87 47.5,-131.87 51,-121.87 44,-121.87"/>
</a>
</g>
<text text-anchor="middle" x="57" y="-106" font-family="Helvetica,sans-Serif" font-size="10.00" fill="grey"> val</text>
</g>
</g>
</svg>
